<svg xmlns="http://www.w3.org/2000/svg" version="1.1" xmlns:xlink="http://www.w3.org/1999/xlink" xmlns:svgjs="http://svgjs.dev/svgjs" width="1000" height="303" viewBox="0 0 1000 303"><g transform="matrix(1,0,0,1,-0.6058041166935482,-0.3548568673998318)"><svg viewBox="0 0 396 120" data-background-color="#331e6d" preserveAspectRatio="xMidYMid meet" height="303" width="1000" xmlns="http://www.w3.org/2000/svg" xmlns:xlink="http://www.w3.org/1999/xlink"><g id="tight-bounds" transform="matrix(1,0,0,1,0.23989843021064416,0.1405373732276587)"><svg viewBox="0 0 395.52 119.71872211396597" height="119.71872211396597" width="395.52"><g><svg viewBox="0 0 593.7874942449437 179.73169502998223" height="119.71872211396597" width="395.52"><g transform="matrix(1,0,0,1,0,53.47207976087924)"><svg viewBox="0 0 395.52 72.78753550822375" height="72.78753550822375" width="395.52"><g id="textblocktransform"><svg viewBox="0 0 395.52 72.78753550822375" height="72.78753550822375" width="395.52" id="textblock"><g><svg viewBox="0 0 395.52 39.25811860367307" height="39.25811860367307" width="395.52"><g transform="matrix(1,0,0,1,0,0)"><svg width="395.52" viewBox="2 -35.20000076293945 365.33001708984375 35.400001525878906" height="39.25811860367307" data-palette-color="#ffcf31"><g class="wordmark-text-0" data-fill-palette-color="primary" id="text-0"><path d="M2-17.4L2-17.4Q2-25.55 6.23-30.38 10.45-35.2 16.75-35.2L16.75-35.2Q31.5-35.2 31.5-17.4L31.5-17.4Q31.5-9.3 27.3-4.55 23.1 0.2 16.75 0.2L16.75 0.2Q2 0.2 2-17.4ZM5.4-17.5L5.4-17.5Q5.4-2.8 16.75-2.8L16.75-2.8Q21.65-2.8 24.88-6.7 28.1-10.6 28.1-17.5L28.1-17.5Q28.1-32.2 16.75-32.2L16.75-32.2Q11.85-32.2 8.63-28.28 5.4-24.35 5.4-17.5ZM39-32.25L35.8-32.25 35.8-35 42.65-35 62.55-4.5 62.35-32.25 59.1-32.25 59.1-35 68.65-35 68.65-32.25 65.5-32.25 65.5 0 61.85 0 41.9-30.5 42.1-2.75 45.9-2.75 45.9 0 35.8 0 35.8-2.75 39-2.75 39-32.25ZM89.1 0L79.05 0 79.05-2.75 82.3-2.75 82.3-32 74.95-32 74.4-27.4 71.95-27.8 72.55-35 95.35-35 96-27.8 93.5-27.4 92.9-32 85.45-32 85.45-2.75 89.1-2.75 89.1 0ZM131.49 0L121.39 0 121.39-2.75 124.44-2.75 122.14-9.25 106.74-9.25 104.49-2.75 108.09-2.75 108.09 0 97.99 0 97.99-2.75 101.29-2.75 112.94-35 115.99-35 128.04-2.75 131.49-2.75 131.49 0ZM121.24-11.75L114.29-31.2 107.59-11.75 121.24-11.75ZM138.09-32.25L135.04-32.25 135.04-35 147.09-35Q152.24-35 155.04-32.75 157.84-30.5 157.84-26.05L157.84-26.05Q157.84-23.1 155.77-19.93 153.69-16.75 151.69-15.6L151.69-15.6 159.59-2.75 163.14-2.75 163.14 0 157.64 0 148.74-14.35 141.49-14.35 141.49-2.75 145.14-2.75 145.14 0 135.04 0 135.04-2.75 138.09-2.75 138.09-32.25ZM146.84-32.25L146.84-32.25 141.49-32.25 141.49-17.1 149.74-17.1Q154.44-21.4 154.44-25.75L154.44-25.75Q154.44-28.95 152.49-30.6 150.54-32.25 146.84-32.25ZM169.94-32.25L166.64-32.25 166.64-35 176.74-35 176.74-32.25 173.34-32.25 173.34-2.75 176.74-2.75 176.74 0 166.64 0 166.64-2.75 169.94-2.75 169.94-32.25ZM181.24-17.4L181.24-17.4Q181.24-25.55 185.46-30.38 189.69-35.2 195.99-35.2L195.99-35.2Q210.74-35.2 210.74-17.4L210.74-17.4Q210.74-9.3 206.54-4.55 202.34 0.2 195.99 0.2L195.99 0.2Q181.24 0.2 181.24-17.4ZM184.64-17.5L184.64-17.5Q184.64-2.8 195.99-2.8L195.99-2.8Q200.89-2.8 204.11-6.7 207.34-10.6 207.34-17.5L207.34-17.5Q207.34-32.2 195.99-32.2L195.99-32.2Q191.09-32.2 187.86-28.28 184.64-24.35 184.64-17.5Z" fill="#ffcf31" data-fill-palette-color="primary"></path><path d="M231.24-32.25L228.19-32.25 228.19-35 240.24-35Q246.99-35 251.06-31.08 255.14-27.15 255.14-18.3L255.14-18.3Q255.14-9.55 252.29-5.2L252.29-5.2Q249.79-1.4 244.49-0.4L244.49-0.4Q242.14 0 238.99 0L238.99 0 228.19 0 228.19-2.75 231.24-2.75 231.24-32.25ZM239.99-32.25L239.99-32.25 234.64-32.25 234.64-2.75 238.74-2.75Q245.39-2.75 247.89-5.2L247.89-5.2Q250.54-7.75 251.29-12.1L251.29-12.1Q251.74-14.65 251.74-18.05L251.74-18.05Q251.74-25.55 248.46-28.9 245.19-32.25 239.99-32.25ZM262.94-32.25L259.64-32.25 259.64-35 269.74-35 269.74-32.25 266.34-32.25 266.34-2.75 269.74-2.75 269.74 0 259.64 0 259.64-2.75 262.94-2.75 262.94-32.25ZM277.73-32.25L274.53-32.25 274.53-35 281.38-35 301.28-4.5 301.08-32.25 297.83-32.25 297.83-35 307.38-35 307.38-32.25 304.23-32.25 304.23 0 300.58 0 280.63-30.5 280.83-2.75 284.63-2.75 284.63 0 274.53 0 274.53-2.75 277.73-2.75 277.73-32.25ZM315.23-32.25L312.18-32.25 312.18-35 333.43-35 333.38-34.7 334.03-27.8 331.53-27.4 330.93-32.25 318.63-32.25 318.63-18.85 329.53-18.85 329.53-22 332.28-22 332.28-13.4 329.53-13.4 329.53-16.1 318.63-16.1 318.63-2.75 332.28-2.75 333.03-9 335.48-8.75 334.73 0 312.18 0 312.18-2.75 315.23-2.75 315.23-32.25ZM342.28-32.25L339.23-32.25 339.23-35 351.28-35Q356.43-35 359.23-32.75 362.03-30.5 362.03-26.05L362.03-26.05Q362.03-23.1 359.95-19.93 357.88-16.75 355.88-15.6L355.88-15.6 363.78-2.75 367.33-2.75 367.33 0 361.83 0 352.93-14.35 345.68-14.35 345.68-2.75 349.33-2.75 349.33 0 339.23 0 339.23-2.75 342.28-2.75 342.28-32.25ZM351.03-32.25L351.03-32.25 345.68-32.25 345.68-17.1 353.93-17.1Q358.63-21.4 358.63-25.75L358.63-25.75Q358.63-28.95 356.68-30.6 354.73-32.25 351.03-32.25Z" fill="#ffcf31" data-fill-palette-color="primary"></path></g></svg></g></svg></g><g transform="matrix(1,0,0,1,196.62408119862047,48.52601821115379)"><svg viewBox="0 0 198.8959188013795 24.261517297069958" height="24.261517297069958" width="198.8959188013795"><g transform="matrix(1,0,0,1,0,0)"><svg width="198.8959188013795" viewBox="2.25 -37.5 409.8500061035156 50" height="24.261517297069958" data-palette-color="#ffcf31"><path d="M24.05-35L31.85-4.9 40.15-35 43.4-35 33.15 0 30.1 0 22.55-29.8 14.3 0 11.2 0 2.25-35 5.4-35 13-5.05 21.25-35 24.05-35ZM44.65-6.4L44.65-6.4Q43.75-8.8 43.75-12L43.75-12Q43.75-18.15 47.2-21.68 50.65-25.2 55.85-25.2L55.85-25.2Q64-25.2 66.55-18.6L66.55-18.6Q67.5-16.2 67.5-13L67.5-13Q67.5-6.85 64.05-3.33 60.6 0.2 55.4 0.2L55.4 0.2Q47.25 0.2 44.65-6.4ZM47-12.35Q47-7.75 49.37-5.23 51.75-2.7 55.5-2.7 59.25-2.7 61.75-5.38 64.25-8.05 64.25-12.65 64.25-17.25 61.9-19.78 59.55-22.3 55.77-22.3 52-22.3 49.5-19.63 47-16.95 47-12.35ZM74.8-25.25L74.8-22.25Q78.55-25 81.9-25.15L81.9-25.15Q84.95-25.15 86.59-24.4 88.25-23.65 89.32-22.28 90.4-20.9 90.4-18.4L90.4-18.4 90.4 0 87.15 0 87.15-17.55Q87.15-19.4 86.34-20.4L86.34-20.4Q84.75-22.25 81.45-22.25L81.45-22.25Q78.3-22.1 74.8-20.2L74.8-20.2 74.8 0 71.55 0 71.55-25 74.8-25.25ZM96.79-28.75L94.39-28.65 94.44-31.5 94.44-33.8Q94.44-35 94.39-35.75L94.39-35.75 97.09-35.9Q97.09-32.65 96.84-29.4L96.84-29.4 96.79-28.75ZM115.04-3.6L115.64-0.9Q114.74 0 112.39 0L112.39 0Q109.09 0 107.94-1.7L107.94-1.7Q105.99-3.55 105.99-6.7L105.99-6.7 105.99-22.1 103.19-22.1 103.64-25 105.99-25 105.99-29.95 109.24-30.25 109.24-25 115.04-25 115.04-22.1 109.24-22.1 109.24-5.9Q109.24-3 112.24-3L112.24-3Q113.54-3 115.04-3.6L115.04-3.6ZM152.54-3.5Q150.89-1.85 148.86-1.03 146.84-0.2 145.39-0.1 143.94 0 142.54 0 141.14 0 139.49-0.25L139.49-0.25 139.49 12.25 136.24 12.5 136.24-23.7Q137.34-24.05 139.61-24.75 141.89-25.45 144.46-25.45 147.04-25.45 148.91-25.03 150.79-24.6 152.39-23.4L152.39-23.4Q156.14-20.5 156.14-13.8 156.14-7.1 152.54-3.5L152.54-3.5ZM139.49-21.7L139.49-2.8Q140.99-2.45 142.69-2.45L142.69-2.45Q147.59-2.45 150.24-5.35 152.89-8.25 152.89-13.5 152.89-18.75 150.19-21L150.19-21Q148.29-22.55 145.31-22.55 142.34-22.55 139.49-21.7L139.49-21.7ZM160.98-19.9L160.08-22.3Q165.53-25 169.63-25.15L169.63-25.15Q172.88-25.15 174.66-24.33 176.43-23.5 177.53-22.03 178.63-20.55 178.63-17.9L178.63-17.9 178.63 0 175.38 0 175.38-1.9Q168.53 0.2 166.58 0.2L166.58 0.2Q166.48 0.2 166.43 0.2L166.43 0.2Q161.93 0.2 160.28-2.55L160.28-2.55Q159.68-3.55 159.61-4.5 159.53-5.45 159.53-6.1L159.53-6.1Q159.53-7.9 160.93-9.33 162.33-10.75 164.28-11.25L164.28-11.25Q167.58-12.1 175.38-12.75L175.38-12.75 175.38-16.8Q175.38-22.25 169.68-22.25L169.68-22.25Q165.68-22.25 160.98-19.9L160.98-19.9ZM162.58-5.7L162.58-5.7Q162.58-2.1 167.53-2.1L167.53-2.1Q171.48-2.1 175.38-3.8L175.38-3.8 175.38-10.95Q167.58-9.85 165.73-9.25L165.73-9.25Q162.58-8.25 162.58-5.7ZM190.63 0L181.73-25 185.38-25.25 192.83-2.35 202.43-25 205.93-25 189.33 12.5 186.28 12.5 191.78 0 190.63 0ZM228.98-12.3L228.98-11.5Q228.98-2.7 237.38-2.7L237.38-2.7Q240.93-2.7 243.88-3.65L243.88-3.65Q244.63-3.9 244.93-4.05L244.93-4.05 245.68-1.4Q243.93-0.35 239.33 0.1L239.33 0.1Q238.03 0.2 236.58 0.2L236.58 0.2Q232.38 0.2 229.58-1.9L229.58-1.9Q225.73-4.75 225.73-11.4 225.73-18.05 229.2-21.63 232.68-25.2 237.63-25.2 242.58-25.2 245.08-22L245.08-22Q246.98-19.45 246.98-15.25L246.98-15.25Q246.98-14.25 246.88-13.15L246.88-13.15 229.03-13.15Q228.98-12.75 228.98-12.3L228.98-12.3ZM237.83-22.1L237.83-22.1Q234.73-22.1 232.53-20.23 230.33-18.35 229.48-15.4L229.48-15.4 244.03-15.4Q243.78-20.95 239.73-21.85L239.73-21.85Q238.83-22.1 237.83-22.1ZM265.97 0.25L259.27-10.4 252.62 0 248.87 0 257.52-13.15 249.92-25 253.77-25.25 259.87-15.5 265.82-25 269.57-25 261.62-12.7 269.87 0 265.97 0.25ZM284.87-3.6L285.47-0.9Q284.57 0 282.22 0L282.22 0Q278.92 0 277.77-1.7L277.77-1.7Q275.82-3.55 275.82-6.7L275.82-6.7 275.82-22.1 273.02-22.1 273.47-25 275.82-25 275.82-29.95 279.07-30.25 279.07-25 284.87-25 284.87-22.1 279.07-22.1 279.07-5.9Q279.07-3 282.07-3L282.07-3Q283.37-3 284.87-3.6L284.87-3.6ZM304.37-24.5L303.07-21.5Q302.27-21.95 301.37-21.95 300.47-21.95 300.37-21.9L300.37-21.9Q298.47-21.9 296.54-20.53 294.62-19.15 293.27-17.45L293.27-17.45 293.27 0 290.02 0 290.02-25 293.27-25.25 293.27-19.65Q295.12-22 296.42-22.95L296.42-22.95Q298.82-24.75 301.02-24.85L301.02-24.85Q301.32-24.9 302.12-24.9 302.92-24.9 304.37-24.5L304.37-24.5ZM307.57-19.9L306.67-22.3Q312.12-25 316.22-25.15L316.22-25.15Q319.47-25.15 321.24-24.33 323.02-23.5 324.12-22.03 325.22-20.55 325.22-17.9L325.22-17.9 325.22 0 321.97 0 321.97-1.9Q315.12 0.2 313.17 0.2L313.17 0.2Q313.07 0.2 313.02 0.2L313.02 0.2Q308.52 0.2 306.87-2.55L306.87-2.55Q306.27-3.55 306.19-4.5 306.12-5.45 306.12-6.1L306.12-6.1Q306.12-7.9 307.52-9.33 308.92-10.75 310.87-11.25L310.87-11.25Q314.17-12.1 321.97-12.75L321.97-12.75 321.97-16.8Q321.97-22.25 316.27-22.25L316.27-22.25Q312.27-22.25 307.57-19.9L307.57-19.9ZM309.17-5.7L309.17-5.7Q309.17-2.1 314.12-2.1L314.12-2.1Q318.07-2.1 321.97-3.8L321.97-3.8 321.97-10.95Q314.17-9.85 312.32-9.25L312.32-9.25Q309.17-8.25 309.17-5.7ZM360.16-24.5L359.36-21.7Q357.56-22.3 354.46-22.3 351.36-22.3 349.66-21.2 347.96-20.1 347.96-18.48 347.96-16.85 348.96-16.1 349.96-15.35 351.46-14.83 352.96-14.3 354.74-13.8 356.51-13.3 358.01-12.5L358.01-12.5Q361.51-10.7 361.51-7.15 361.51-3.6 359.09-1.7 356.66 0.2 352.01 0.2L352.01 0.2Q349.66 0.2 347.49-0.28 345.31-0.75 344.16-1.6L344.16-1.6 345.26-4.25Q346.41-3.25 349.91-2.8L349.91-2.8Q351.01-2.65 352.16-2.65L352.16-2.65Q354.76-2.65 356.51-3.73 358.26-4.8 358.26-7L358.26-7Q358.26-8.5 357.26-9.35 356.26-10.2 354.76-10.78 353.26-11.35 351.49-11.8 349.71-12.25 348.21-12.98 346.71-13.7 345.71-14.88 344.71-16.05 344.71-18.05L344.71-18.05Q344.71-21.3 347.21-23.25 349.71-25.2 353.91-25.2L353.91-25.2Q354.96-25.2 356.06-25.08 357.16-24.95 358.06-24.85L358.06-24.85 360.16-24.5ZM369.16-37.5L369.16-22.15Q373.11-25 376.76-25.15L376.76-25.15Q379.86-25.15 381.51-24.4 383.16-23.65 384.21-22.28 385.26-20.9 385.26-18.4L385.26-18.4 385.26 0 382.01 0 382.01-17.55Q382.01-19.4 381.21-20.4L381.21-20.4Q379.61-22.25 376.31-22.25L376.31-22.25Q373.06-22.1 369.16-20.15L369.16-20.15 369.16 0 365.91 0 365.91-37.25 369.16-37.5ZM391.31-25L394.56-25.25 394.56 0 391.31 0 391.31-25ZM392.81-31.7Q391.81-31.7 391.28-32.35 390.76-33 390.76-34 390.76-35 391.33-35.63 391.91-36.25 392.91-36.25 393.91-36.25 394.53-35.63 395.16-35 395.16-33.9 395.16-32.8 394.48-32.25 393.81-31.7 392.81-31.7ZM411.5-3.6L412.1-0.9Q411.2 0 408.85 0L408.85 0Q405.55 0 404.4-1.7L404.4-1.7Q402.45-3.55 402.45-6.7L402.45-6.7 402.45-22.1 399.65-22.1 400.1-25 402.45-25 402.45-29.95 405.7-30.25 405.7-25 411.5-25 411.5-22.1 405.7-22.1 405.7-5.9Q405.7-3 408.7-3L408.7-3Q410-3 411.5-3.6L411.5-3.6Z" opacity="1" transform="matrix(1,0,0,1,0,0)" fill="#ffcf31" class="slogan-text-1" data-fill-palette-color="secondary" id="text-1"></path></svg></g></svg></g></svg></g></svg></g><g transform="matrix(1,0,0,1,414.05579921496144,0)"><svg viewBox="0 0 179.73169502998223 179.73169502998223" height="179.73169502998223" width="179.73169502998223"><g><svg></svg></g><g id="icon-0"><svg viewBox="0 0 179.73169502998223 179.73169502998223" height="179.73169502998223" width="179.73169502998223"><g><path d="M0 89.866c0-49.632 40.234-89.866 89.866-89.866 49.632 0 89.866 40.234 89.866 89.866 0 49.632-40.234 89.866-89.866 89.866-49.632 0-89.866-40.234-89.866-89.866zM89.866 176.191c47.676 0 86.326-38.649 86.325-86.325 0-47.676-38.649-86.326-86.325-86.326-47.676 0-86.326 38.649-86.326 86.326 0 47.676 38.649 86.326 86.326 86.325z" data-fill-palette-color="accent" fill="#ffcf31" stroke="transparent"></path></g><g transform="matrix(1,0,0,1,35.56172859674362,49.79780756071802)"><svg viewBox="0 0 108.608237836495 80.1360799085462" height="80.1360799085462" width="108.608237836495"><g><svg xmlns="http://www.w3.org/2000/svg" xmlns:xlink="http://www.w3.org/1999/xlink" version="1.1" x="0" y="0" viewBox="10.092000007629395 21.985000610351562 88.13500213623047 65.02999877929688" style="enable-background:new 0 0 109 109;" xml:space="preserve" height="80.1360799085462" width="108.608237836495" class="icon-s-0" data-fill-palette-color="accent" id="s-0"><g fill="#ffcf31" data-fill-palette-color="accent"><path class="" d="M96.349 21.986c-1.035 0-1.876 0.926-1.876 2.062 0 0-3.452 18.181-3.826 20.659-0.376 2.477 1.089 3.384 2.513 3.384 1.427 0 1.313 1.488 1.313 1.488l-1.686 33.938c-0.024 0.157-0.04 0.319-0.04 0.483 0 1.666 1.228 3.015 2.74 3.015 1.512 0 2.74-1.349 2.74-3.015V24.048C98.227 22.912 97.387 21.986 96.349 21.986z" fill="#ffcf31" data-fill-palette-color="accent"></path><path class="" d="M18.834 21.986c-0.518 0-0.938 0.46-0.938 1.031v18.593 0.002c0 0.227-0.17 0.418-0.379 0.418-0.21 0-0.381-0.192-0.381-0.418v-0.002h-0.001V23.017c0-0.57-0.417-1.031-0.938-1.031-0.518 0-0.936 0.46-0.936 1.031V41.7h-0.004c-0.014 0.183-0.151 0.33-0.322 0.33-0.172 0-0.311-0.147-0.324-0.33h-0.004l-0.003-18.684c0-0.57-0.421-1.031-0.937-1.031-0.52 0-0.942 0.46-0.942 1.031v18.593 0.002c0 0.227-0.166 0.418-0.376 0.418-0.209 0-0.381-0.192-0.381-0.418l0.002-0.002h-0.002V23.017c0-0.57-0.419-1.031-0.937-1.031-0.52 0-0.939 0.46-0.939 1.031v22.725c0 1.045 0.375 2.327 2.102 2.327 1.425 0 1.314 1.487 1.314 1.487l-1.292 34.078c-0.014 0.118-0.021 0.242-0.021 0.365 0 1.666 1.224 3.015 2.738 3.015 1.513 0 2.74-1.349 2.74-3.015 0-0.124-0.007-0.247-0.021-0.365l-1.291-34.078c0 0-0.113-1.487 1.312-1.487 1.728 0 2.103-1.282 2.103-2.327V23.017C19.774 22.446 19.352 21.986 18.834 21.986z" fill="#ffcf31" data-fill-palette-color="accent"></path><path class="" d="M55.105 23.026c-17.382 0-31.474 14.089-31.474 31.474 0 17.383 14.091 31.475 31.474 31.475 17.384 0 31.476-14.092 31.476-31.475C86.581 37.115 72.489 23.026 55.105 23.026zM55.515 74.893c-5.446 0-10.566-2.121-14.419-5.975-0.369-0.37-0.369-0.971 0-1.338 0.37-0.37 0.97-0.37 1.34 0 3.494 3.491 8.139 5.417 13.079 5.417 0.523 0 0.948 0.423 0.948 0.947C56.463 74.469 56.038 74.893 55.515 74.893zM69.935 68.918c-0.185 0.183-0.427 0.276-0.67 0.276-0.241 0-0.483-0.094-0.668-0.276-0.37-0.37-0.37-0.971 0-1.338 3.495-3.494 5.419-8.139 5.419-13.081 0-10.204-8.298-18.5-18.5-18.5-0.522 0-0.945-0.424-0.945-0.947 0-0.523 0.423-0.945 0.945-0.945 11.244 0 20.393 9.148 20.393 20.392C75.908 59.948 73.787 65.067 69.935 68.918z" fill="#ffcf31" data-fill-palette-color="accent"></path></g></svg></g></svg></g></svg></g></svg></g></svg></g><defs></defs></svg><rect width="395.52" height="119.71872211396597" fill="none" stroke="none" visibility="hidden"></rect></g></svg></g></svg>