<svg xmlns="http://www.w3.org/2000/svg" version="1.1" width="64.634px" height="64px" style="shape-rendering:geometricPrecision; text-rendering:geometricPrecision; image-rendering:optimizeQuality; fill-rule:evenodd; clip-rule:evenodd" xmlns:xlink="http://www.w3.org/1999/xlink" viewBox="0 0 64.634px 64px"><g><path style="opacity:0.935" fill="#ffcf30" d="M29.466 -0.106h5.914c12.301 1.627 21.137 8.034 26.508 19.221 1.451 3.481 2.331 7.072 2.64 10.772v4.013c-1.749 14.88 -9.775 24.561 -24.079 29.043a64.932 64.932 0 0 1 -5.069 0.951h-5.703c-10.753 -1.285 -19.026 -6.495 -24.819 -15.63 -4.897 -8.937 -5.671 -18.231 -2.323 -27.881C7.692 8.529 16.669 1.699 29.466 -0.106Zm0 1.479c12.777 -0.53 22.599 4.539 29.466 15.208 5.492 10.209 5.492 20.418 0 30.627 -6.855 10.697 -16.676 15.732 -29.466 15.102 -12.602 -1.761 -21.227 -8.555 -25.875 -20.383C-0.211 28.976 2.781 17.887 12.568 8.66c4.92 -4.092 10.553 -6.521 16.898 -7.287Zm3.38 21.756c5.469 0.364 8.497 3.286 9.083 8.766 -0.147 2.345 -0.992 4.387 -2.535 6.125 -0.24 0.158 -0.451 0.123 -0.634 -0.106 3.065 -3.544 3.311 -7.276 0.739 -11.195 -1.695 -1.956 -3.842 -2.977 -6.442 -3.063 -0.159 -0.142 -0.229 -0.318 -0.211 -0.528Zm-6.125 14.574a1.042 1.042 0 0 1 0.634 0.106c1.588 1.516 3.489 2.29 5.703 2.323 0.097 0.087 0.167 0.193 0.211 0.317 -1.155 0.275 -2.282 0.169 -3.38 -0.317a14.337 14.337 0 0 1 -2.535 -1.479c-0.347 -0.238 -0.558 -0.555 -0.634 -0.951Z"/></g><g><path style="opacity:0.94" fill="#ffce30" d="M13.201 17.637h0.845c0.07 11.547 0.141 11.547 0.211 0 0.704 0.282 1.408 0.282 2.112 0 0.07 11.265 0.141 11.265 0.211 0h0.845c0.035 3.732 0 7.464 -0.106 11.195a12.811 12.811 0 0 1 -1.162 0.634 2.178 2.178 0 0 0 -0.211 0.634 249.627 249.627 0 0 1 0.528 15.419c-0.784 0.842 -1.559 0.842 -2.323 0 0.051 -5.421 0.157 -10.842 0.317 -16.264 -0.699 0.111 -1.156 -0.17 -1.373 -0.845a93.024 93.024 0 0 1 0.106 -10.772Z"/></g><g><path style="opacity:0.941" fill="#ffcf30" d="M50.377 17.637c0.537 -0.084 0.995 0.057 1.373 0.422 0.141 9.153 0.141 18.306 0 27.459 -0.784 0.842 -1.559 0.842 -2.323 0 0.084 -5.422 0.26 -10.844 0.528 -16.264 -1.02 0.09 -1.584 -0.368 -1.69 -1.373a120.008 120.008 0 0 1 2.112 -10.244Z"/></g><g><path style="opacity:0.99" fill="#ffcf30" d="M30.733 18.059c7.351 -0.534 12.456 2.564 15.314 9.294 1.966 7.931 -0.675 13.739 -7.921 17.426 -6.989 2.27 -12.656 0.475 -17.003 -5.386 -3.555 -6.8 -2.605 -12.891 2.852 -18.271 2.034 -1.546 4.287 -2.567 6.759 -3.063Zm2.112 5.069c-0.018 0.21 0.052 0.386 0.211 0.528 2.6 0.086 4.748 1.107 6.442 3.063 2.572 3.919 2.326 7.651 -0.739 11.195 0.183 0.229 0.394 0.264 0.634 0.106 1.543 -1.739 2.388 -3.78 2.535 -6.125 -0.586 -5.479 -3.613 -8.401 -9.083 -8.766Zm-6.125 14.574c0.076 0.395 0.287 0.712 0.634 0.951a14.337 14.337 0 0 0 2.535 1.479c1.098 0.486 2.224 0.591 3.38 0.317a0.77 0.77 0 0 0 -0.211 -0.317c-2.214 -0.033 -4.115 -0.808 -5.703 -2.323a1.042 1.042 0 0 0 -0.634 -0.106Z"/></g></svg>